<?xml version="1.0" encoding="utf-8"?>
<!-- Generator: Adobe Illustrator 24.0.1, SVG Export Plug-In . SVG Version: 6.00 Build 0)  -->
<svg version="1.1" id="Layer_1" xmlns="http://www.w3.org/2000/svg" xmlns:xlink="http://www.w3.org/1999/xlink" x="0px" y="0px"
	 viewBox="0 0 4000 4000" style="enable-background:new 0 0 4000 4000;" xml:space="preserve">
<style type="text/css">
	.st0{fill:#FFFFFF;}
	.st1{opacity:0.5;}
	.st2{fill:#000072;}
	.st3{opacity:0.25;}
	.st4{fill:#FF0068;}
	.st5{fill:#F4A822;}
	.st6{fill:#FEDA24;}
	.st7{fill:#39D4FF;}
	.st8{fill:#FF1D73;}
	.st9{fill:#FF64F0;}
	.st10{opacity:0.7;}
	.st11{fill:#F0F3F8;}
	.st12{opacity:0.3;}
	.st13{fill:#48B6F9;}
	.st14{fill:#FF67A0;}
</style>
<g>
	<g>
		<g>
			<g>
				<g>
					<path class="st0" d="M3172.28,694.88c-30.6-50.29-45.61-110.61-39.01-173.68c16.03-153.07,153.11-264.16,306.18-248.13
						c153.07,16.03,264.16,153.11,248.13,306.18s-153.11,264.16-306.18,248.13c-42.58-4.46-81.89-18.31-116.14-39.24l-129.02,28.66
						L3172.28,694.88z"/>
				</g>
			</g>
			<g class="st1">
				<g>
					<g>
						<path class="st0" d="M3433.87,326.37c-142.99-14.97-271.99,80.99-301.44,218.47c-0.01-9.82,0.43-19.74,1.48-29.73
							c16.03-153.07,153.11-264.16,306.18-248.13c153.07,16.03,264.16,153.11,248.13,306.18c-1.05,10.03-2.65,19.88-4.71,29.53
							C3683.26,462.04,3576.91,341.35,3433.87,326.37z"/>
					</g>
				</g>
			</g>
			<g>
				<g>
					<path class="st2" d="M3410.99,846.71c-10.43,0-20.91-0.55-31.43-1.65c-41.81-4.38-81.24-17.17-117.31-38.04l-122.14,27.13
						c-6.12,1.36-12.55-0.62-16.85-5.22c-4.29-4.6-5.83-11.13-4.05-17.17l33.84-114.51c-31.05-54.17-43.98-115.5-37.44-177.91
						c8.25-78.75,46.67-149.58,108.18-199.44c61.52-49.86,138.76-72.75,217.52-64.52c78.75,8.25,149.59,46.67,199.44,108.19
						c49.85,61.52,72.76,138.77,64.52,217.52c-8.25,78.75-46.67,149.58-108.18,199.44C3543.78,823.73,3478.66,846.7,3410.99,846.71z
						 M3265.27,770.37c3.25,0,6.46,0.89,9.27,2.61c33.21,20.29,69.78,32.65,108.72,36.73c69.28,7.25,137.29-12.91,191.43-56.79
						c54.14-43.88,87.95-106.21,95.22-175.52c7.26-69.31-12.91-137.3-56.79-191.44c-43.87-54.14-106.21-87.96-175.52-95.21
						c-69.3-7.26-137.3,12.91-191.43,56.78c-54.14,43.88-87.95,106.21-95.22,175.52c-5.99,57.25,6.63,113.47,36.51,162.59
						c2.61,4.28,3.29,9.47,1.86,14.28l-27.48,92.99l99.57-22.12C3262.69,770.51,3263.98,770.37,3265.27,770.37z"/>
				</g>
			</g>
			<g class="st3">
				<g>
					<path class="st2" d="M3170.72,692.2c76.2,64.72,181.3,93.2,285.77,67.42c115.86-28.59,201.37-116.6,232.28-223.56
						c0.7,14.19,0.35,28.62-1.18,43.19c-16.03,153.07-153.11,264.16-306.18,248.13c-42.58-4.46-81.89-18.31-116.14-39.24
						l-129.02,28.66l36.03-121.93C3171.74,693.99,3171.25,693.08,3170.72,692.2z"/>
				</g>
			</g>
			<g>
				<g>
					<path class="st4" d="M3321.49,473.61L3321.49,473.61c23.86-24.38,63-20.48,87.38,3.38l3.79,3.71l3.71-3.79
						c23.86-24.38,62.91-29.12,87.28-5.26l0,0c24.38,23.86,24.8,62.95,0.94,87.33l-3.71,3.79l-75,76.63
						c-6.29,6.43-16.6,6.54-23.02,0.25l-76.64-75l-3.79-3.71C3298.06,537.08,3297.64,497.98,3321.49,473.61z"/>
				</g>
			</g>
		</g>
		<g>
			<g class="st3">
				<g>
					<ellipse class="st2" cx="1635.57" cy="3727.9" rx="798.61" ry="127.35"/>
				</g>
			</g>
			<g>
				<g>
					<path class="st5" d="M1862.17,2686.06c-2.01,11.55-4.38,20.2-4.38,24.53c0,18.55-45.45,456.43-45.45,456.43
						c-45.45,131.36,5.93,279.5-7.88,352.56c-8.47,44.62-43.43,118.03-132.19,154.41c-19.85,8.18-42.37,14.46-67.9,18.13
						c-12.56,1.84-25.83,3.02-39.88,3.49c-22.93,0.83-47.94-0.3-75.13-3.79c-18.61-2.31-38.22-5.69-58.9-10.31
						c-223.15-49.6-240.39-312.74-238.97-410.68v-0.59c0.36-22.51,1.72-36.14,1.72-36.14l-19.32-462l-5.87-95.4
						c0,0,195.95-198.02,253.6-229.31c57.65-31.34,226.76,27.37,353.21,86.75C1871.77,2579.64,1868.8,2648.2,1862.17,2686.06z"/>
				</g>
			</g>
			<g>
				<g>
					<path class="st2" d="M1573.5,3713.82c-3.88,0-7.48-0.18-10.75-0.49c-9.77-0.95-16.93-9.63-15.98-19.41
						c0.95-9.76,9.67-16.9,19.36-15.98c3.44,0.32,76.28,5.85,103.3-61.3c29.22-72.6,18.74-150.57,11.8-202.17l-1.09-8.1
						c-6.97-52.8-8.01-140.63-8.05-144.34c0-48.11,0.51-469.82,17.62-524.1c2.96-9.36,12.94-14.57,22.3-11.61
						c9.36,2.95,14.56,12.94,11.61,22.3c-11.71,37.14-15.97,327.27-15.98,513.22c0.01,0.69,1.06,89.22,7.75,139.88l1.07,8.02
						c7.43,55.3,18.66,138.88-14.06,220.18C1675.46,3696.89,1611.5,3713.82,1573.5,3713.82z"/>
				</g>
			</g>
			<g class="st3">
				<g>
					<path class="st2" d="M1862.17,2686.06c-2.01,11.55-4.38,20.2-4.38,24.53c0,18.55-45.45,456.43-45.45,456.43
						c-45.45,131.36,5.93,279.5-7.88,352.56c-10.37,54.63-60.44,152.34-200.1,172.55c27.97-6.52,63.46-23.82,81.59-68.85
						c32.59-81,18.72-166.92,11.85-219.24c-6.93-52.32-7.94-142.21-7.94-142.21s0.06-465.32,16.83-518.58
						C1706.69,2743.24,1778.38,2697.55,1862.17,2686.06z"/>
				</g>
			</g>
			<g>
				<g>
					<path class="st2" d="M1550.9,3713.75c-38.27,0-79.74-4.95-124.33-14.87c-119.65-26.61-201-116.48-235.28-259.89
						c-25.3-105.89-16.2-202.56-15.8-206.62c0.95-9.76,9.56-16.92,19.42-15.94c9.77,0.95,16.91,9.65,15.96,19.42
						c-0.36,3.71-33.14,371.27,223.41,428.34c113.5,25.25,203.89,16.4,268.67-26.28c64.66-42.6,80.66-103.87,84.02-121.63
						c4.71-24.92,0.83-61.67-3.65-104.24c-7.76-73.57-17.42-165.13,12.22-250.82c3.2-9.28,13.34-14.21,22.61-10.99
						c9.28,3.21,14.2,13.33,10.99,22.61c-27.05,78.21-17.85,165.41-10.46,235.47c4.78,45.36,8.91,84.53,3.22,114.58
						c-4.02,21.24-23.05,94.43-99.39,144.72C1675.84,3698.34,1618.38,3713.75,1550.9,3713.75z"/>
				</g>
			</g>
			<g>
				<g>
					<path class="st6" d="M2174.79,2932.97c-13.86,273.57-220.18,341.48-478.71,353.68c30.75-26.19,53.8-58.6,69.68-94.09
						c41.48-92.55,34.6-206.08-10.07-284.36c-21.86-38.4-52.91-68.26-91.72-83.07c73.71-10.43,136.93-33.6,167.75-69.56l227.53,4.74
						L2174.79,2932.97z"/>
				</g>
			</g>
			<g>
				<g>
					<path class="st7" d="M1765.76,3192.56c-15.88,35.49-38.93,67.9-69.68,94.09c-63.88,3.08-130.95,2.73-199.09,1.19
						c-62.81-1.36-125.5-7.82-186.94-20.92c-57.06-12.15-110.39-28.74-159.33-49.06c-238.79-99.01-373.12-286.07-319.67-475.63
						c21.63-77.03,74.3-154.47,163.6-226.64l77.92,41.6l185.46,99.07c-9.3,33.89-1.07,62.93,19.38,86.98
						c63.34,74.72,244.48,102.03,386.57,81.89c38.81,14.81,69.86,44.68,91.72,83.07C1800.37,2986.47,1807.24,3100,1765.76,3192.56z"
						/>
				</g>
			</g>
			<g>
				<g>
					<path class="st8" d="M1696.08,3286.65c-63.88,3.08-130.95,2.73-199.09,1.19c-62.81-1.36-125.5-7.82-186.94-20.92
						c-57.06-12.15-110.39-28.74-159.33-49.06l-0.18-0.12c-156.72-104.17-78.87-449.85,126.86-474.5
						c63.34,74.72,244.48,102.03,386.57,81.89C1812.34,2881.6,1846.29,3158.84,1696.08,3286.65z"/>
				</g>
			</g>
			<g>
				<g>
					<path class="st2" d="M1588.88,3306.74c-29.71,0-60.47-0.42-92.31-1.13c-66.8-1.48-130.8-8.66-190.21-21.32
						c-128.35-27.36-242.54-77.85-330.22-146.01c-87.38-67.93-144.66-150.23-165.65-238c-33.45-139.83,27.98-281.37,172.99-398.54
						c5.56-4.49,13.25-5.21,19.55-1.85l263.37,140.66c7.32,3.91,10.97,12.37,8.77,20.37c-11.6,42.38,9.32,78.1,62.18,106.15
						c136.23,72.3,410.39,59.13,480.89-23.1c6.39-7.46,17.61-8.31,25.07-1.92c7.45,6.39,8.32,17.61,1.92,25.06
						c-39.89,46.52-128,76.2-241.73,81.43c-108.58,5-214.32-13.72-282.81-50.07c-62.14-32.98-91.1-79.75-82.83-132.86
						l-241.09-128.76c-127.26,106.52-181.09,232.29-151.7,355.16c39.45,164.9,223.43,305.23,468.71,357.51
						c57.25,12.2,119.02,19.12,183.59,20.55c338.29,7.51,643.2-12.67,659.65-338.01c0.49-9.81,8.99-17.41,18.65-16.86
						c9.81,0.49,17.35,8.84,16.86,18.65c-8.25,163.11-82.79,269.09-227.89,323.98C1863.88,3295.96,1739.96,3306.74,1588.88,3306.74z
						"/>
				</g>
			</g>
			<g>
				<g>
					<path class="st9" d="M2938.15,1081.31c-23.7,88.88-87.87,96.29-123.19,63.7c-53.45,178.65-104.05,408.37-153.58,656.94
						c-6.4,32.17-7.76,65.24-3.85,97.83c19.2,161.88,39.82,350.36-106.48,296.5l-93.86,390.48
						c-16.47,68.5-66.25,124.67-132.9,147.72c-54.04,18.66-132.25,33.95-244.77,36.2c-39.17,0.77-84.44-0.83-133.97-4.44
						c-73.18-5.21-155.54-14.75-240.92-27.08c-17.12-2.49-34.31-5.04-51.61-7.76c-78.93-12.21-159.27-26.43-236.42-41.6
						c-222.73-43.91-418.51-95.4-473.79-127.16c-69.44-39.88-27.91-521.55,14.99-890.52c27.26-235.41,55.16-424.96,55.16-424.96
						s8.83-29.21,24.83-77.74c28.5-86.39,79.93-233.99,145.11-387.04c95.34-223.74,220.24-459.03,346.51-531.62
						c181.26-104.17,596.15-82.78,911.02,25.89c0.77,0.24,1.54,0.53,2.31,0.77c138,47.82,256.57,112.46,327.55,190.62
						c0,0,9.07,8.77,22.4,25.42c43.2,54.04,131.3,190.74,98.06,376.08C2890.74,869.53,2961.85,992.43,2938.15,1081.31z"/>
				</g>
			</g>
			<g class="st3">
				<g>
					<path class="st2" d="M2610.89,566.81c-38.87,144.52-77.62,286.67-116.31,425.91c-3.79-1.48-7.7-2.61-11.73-3.5l-86.51-18.37
						l10.49-51.25c0,0,252.83-454.53,54.34-623.4c-8.18-6.99-15.11-13.51-20.74-19.55c0.77,0.24,1.54,0.53,2.31,0.77
						C2664.22,365.29,2610.89,566.81,2610.89,566.81z"/>
				</g>
			</g>
			<g class="st3">
				<g>
					<path class="st2" d="M1419.67,2010.51c-120.88,225.22-239.38,562.79-39.88,652.73c15.29,6.87,27.49,15.94,36.8,26.55
						c-222.73-43.91-418.51-95.4-473.79-127.16c-69.44-39.88-27.91-521.55,14.99-890.52l406-14.81
						C1363.79,1657.31,1540.48,1785.29,1419.67,2010.51z"/>
				</g>
			</g>
			<g class="st10">
				<g>
					<path class="st11" d="M2776.21,474.2c-254.73-229.9-926.66-327.37-1192.23-197.97c-4.68,94.81-67.96,130.59-153.58,143.63
						c-207.74,285.6-381.89,862.85-381.89,862.85s-160.75,1093.22-88.64,1288.46c-6.64-3.02-12.38-5.81-17.06-8.53
						c-113.71-65.36,70.16-1315.48,70.16-1315.48s255.26-846.25,516.45-996.4c261.19-150.09,1007.78-39.46,1240.88,217.28
						C2770.28,468.03,2772.42,470.11,2776.21,474.2z"/>
				</g>
			</g>
			<g>
				<g>
					<path class="st2" d="M1809.82,2767.71c-7.81,0-15.68-0.44-23.6-1.35l-83.64-9.59c-9.76-1.12-16.75-9.93-15.63-19.69
						c1.12-9.75,9.96-16.73,19.69-15.64l83.64,9.59c77.63,8.89,150.71-36.1,177.74-109.43c181.47-492.4,380.3-1146.8,625.72-2059.43
						c1.95-7.51,46.09-187.45-157.58-268.24c-9.13-3.62-13.59-13.95-9.97-23.08c3.62-9.13,13.94-13.59,23.08-9.97
						c233.49,92.61,179.39,308.28,178.82,310.45c-245.73,913.76-444.87,1569.13-626.72,2062.56
						C1971.41,2715.18,1894.69,2767.71,1809.82,2767.71z"/>
				</g>
			</g>
			<g class="st3">
				<g>
					<path class="st2" d="M2938.15,1081.31c-23.7,88.88-87.87,96.29-123.19,63.7c-53.45,178.65-104.05,408.37-153.58,656.94
						c-6.4,32.17-7.76,65.24-3.85,97.83c19.2,161.88,39.82,350.36-106.48,296.5l-93.86,390.48
						c-16.47,68.5-66.25,124.67-132.9,147.72c-54.04,18.66-132.25,33.95-244.77,36.2c-39.17,0.77-84.44-0.83-133.97-4.44
						c-15.94-1.13-32.35-2.49-49.12-4.03c-6.34-0.53-12.68-1.18-19.08-1.78c-1.18-0.12-2.43-0.24-3.67-0.35
						c-4.68-0.47-9.3-0.95-14.04-1.48c-9.9-1.01-19.91-2.07-29.98-3.26c-0.89-0.12-1.84-0.18-2.73-0.3
						c-14.28-1.66-28.74-3.38-43.31-5.22c-9.72-1.18-19.49-2.49-29.33-3.79c-4.09-0.53-8.18-1.07-12.32-1.66
						c-12.38-1.66-24.83-3.44-37.33-5.21c-17.12-2.49-34.31-5.04-51.61-7.76l-4.62-7.64c0,0,183.51-7.05,237.43-122.59
						c53.92-115.54,325.48-915.46,325.48-915.46l35.31-100.27c20.55-58.36-17.15-120.27-78.19-130.37
						c-0.42-0.07-0.84-0.14-1.26-0.21c-281.04-47.34-400.91-218.53-360.44-395.1c1.54-6.52,0-13.33-4.21-18.55
						c-26.6-33.06-85.09-45.09-112.05-14.22c0,0-51.49,102.74-114.06,182.2c-62.22,78.98-282.93,85.92-401.44,57.77
						c-61.5-14.64-109.86-49.18-137.17-97.53c28.5-86.39,79.93-233.99,145.11-387.04c7.23-0.83,14.58-0.89,21.98-0.18l418.92,40.23
						c29.75,2.84,56.23,19.91,71.16,45.8l20.68,35.79c44.97-0.53,83.72,9.54,116.49,29.63c0,0,2.67-3.5,7.82-8.83
						c36.32-37.63,89.95-53.21,141.14-42.31l415.25,88.35l86.51,18.37c4.03,0.89,7.94,2.02,11.73,3.5
						c38.69-139.24,77.44-281.39,116.31-425.91c0,0,53.33-201.52-168.16-289.39c138,47.82,256.57,112.46,327.55,190.62
						c0,0,9.07,8.77,22.4,25.42c43.2,54.04,131.3,190.74,98.06,376.08C2890.74,869.53,2961.85,992.43,2938.15,1081.31z"/>
				</g>
			</g>
			<g>
				<g>
					<path class="st2" d="M2059.63,2788.61c-324.74,0-1008.24-143.08-1125.7-210.57c-22.39-12.87-47.86-52.77-45.93-248.69
						c1.11-112.34,11.05-263.98,29.53-450.7c31.43-317.44,77.36-630.93,77.82-634.06c0.13-0.86,0.31-1.71,0.57-2.55
						c10.5-34.83,260.31-854.8,524.61-1006.68c126.85-72.89,373.12-90.55,642.74-46.07c278.05,45.87,509.68,145.45,619.79,266.41
						c11.36,11.19,166.42,169.21,126.26,410.71c14.22,26.3,68.56,134.87,46,219.48c-17.59,65.96-54.09,85.64-74.28,91.5
						c-18.71,5.43-38.35,3.73-55.83-4.34c-44.09,151.63-90.84,353.63-146.37,632.35c-6.09,30.56-7.33,61.61-3.69,92.29
						c14.57,122.81,31.08,262-29.12,309.52c-20.84,16.46-48.43,20.37-82.16,11.7l-89.4,371.98
						c-18.13,75.46-72.1,135.42-144.36,160.38c-65.54,22.65-149.74,35.15-250.27,37.16
						C2073.28,2788.55,2066.51,2788.61,2059.63,2788.61z M1030.35,1251.07c-3.28,22.47-47.12,325.03-77.43,631.19
						c-18.38,185.65-28.26,336.21-29.35,447.49c-1.87,190.55,23.07,214.59,28.09,217.47c111.96,64.33,795.31,205.84,1108.52,205.84
						c6.48,0,12.79-0.06,18.95-0.19c96.81-1.93,177.34-13.78,239.37-35.21c60.73-20.98,106.11-71.48,121.4-135.09l93.84-390.47
						c1.19-4.93,4.43-9.13,8.9-11.52c4.48-2.39,9.77-2.76,14.52-1.01c30.08,11.07,52.56,10.98,66.84-0.28
						c44.58-35.18,27.97-175.19,15.84-277.42c-4.08-34.4-2.7-69.2,4.13-103.43c59.42-298.17,106.9-501.27,153.95-658.53
						c1.76-5.88,6.42-10.43,12.33-12.05c5.92-1.61,12.24-0.08,16.76,4.08c12.44,11.49,28.94,15.7,44.13,11.3
						c22.43-6.51,40.13-30.13,49.84-66.52c21.55-80.83-44.94-197.1-45.61-198.27c-2.11-3.64-2.85-7.9-2.11-12.04
						c41.18-229.72-113.81-384.11-115.39-385.64c-0.25-0.25-0.52-0.53-0.76-0.79c-104.75-115.4-328.9-210.96-599.6-255.62
						c-261.88-43.2-499.17-27.18-619.23,41.82C1290.62,408.5,1041.6,1214.25,1030.35,1251.07z"/>
				</g>
			</g>
			<g class="st3">
				<g>
					<path class="st2" d="M2174.79,2932.97c-13.86,273.57-220.18,341.48-478.71,353.68c-63.88,3.08-130.95,2.73-199.09,1.19
						c-62.81-1.36-125.5-7.82-186.94-20.92c-57.06-12.15-110.39-28.74-159.33-49.06c-238.79-99.01-373.12-286.07-319.67-475.63
						c31.46-6.4,56.76-8.95,58.48-3.79c4.03,11.97,118.92,93.8,116.02,163.12c-2.9,69.39-54.34,57.06,300.83,234.82
						c186.47,93.32,346.57,91.9,459.39,56.17c102.09-32.35,165.55-92.79,174.97-136.64c19.73-92.32-35.55-174.32-147.42-153.64
						c-10.55,1.95-23.23,3.97-37.63,5.93c-138.71,18.96-437.58,32.59-518.11-81.89c-88.88-126.45-189.61-102.57-189.61-102.57
						l-31.82-156.25c0,0,0,0,17.01-4.86c9.18-2.61,15.33,47.45,34.17,45.26l190.69,48.36c-9.3,33.89-1.07,62.93,19.38,86.98
						c63.34,74.72,244.48,102.03,386.57,81.89c73.71-10.43,136.93-33.6,167.75-69.56l227.53,4.74L2174.79,2932.97z"/>
				</g>
			</g>
			<g>
				<g>
					<g>
						<path class="st5" d="M1295.12,1861.08l-2.19,8.35L1028.59,2865c-10.78,40.71-49.42,58.13-83.43,51.08
							c-22.63-4.62-43.2-20.09-52.14-46.75l-336.8-1003.57L1295.12,1861.08z"/>
					</g>
				</g>
				<g class="st10">
					<g>
						<path class="st11" d="M1289.01,1861.37l-692.37,4.39l336.79,1003.57c7.82,23.35,24.59,38.1,43.85,44.5
							c-34.19,11.44-76.32-3.02-90.24-44.5l-336.8-1003.57l738.83-4.68L1289.01,1861.37z"/>
					</g>
				</g>
				<g>
					<g>
						<path class="st5" d="M1345.72,1733.09l-10.19,70.27c-1.07,7.41-3.26,14.4-6.28,20.8c-11.85,24.83-37.09,41.6-65.83,41.6
							H550.24c-75.55-9.54-73.65-93.09-73.65-93.09l29.45-25.36l76.79-66.07c0,0,254.79-7.41,377.74-10.37
							s255.26-17.78,255.26-17.78L1345.72,1733.09z"/>
					</g>
				</g>
				<g class="st3">
					<g>
						<path class="st2" d="M1345.72,1733.09l-10.19,70.27c-1.07,7.41-3.26,14.4-6.28,20.8c-2.67-4.62-4.86-9.42-6.7-14.22
							c-12.8-33.66-9.3-70.27-38.28-85.74c-3.5-1.9-6.93-3.26-10.31-4.15c-40.06-10.78-74.66,40.23-98.6,73
							c-25.95,35.55-82.24,48.17-128.11,24.47c-46.34-23.88-40.77-92.61-82.24-86.69c-16.59,2.37-30.75,12.32-40.77,27.97
							c-15.05,23.29-21.03,59.19-12.56,100.97c0.41,2.01,0.77,4.03,1.07,5.98H749.39c3.5-44.5,7.7-108.32-43.61-132.67
							c-59.25-28.15-106.66,90.36-181.49,31.88c-7.35-5.75-13.39-11.67-18.25-17.66l76.79-66.07c0,0,254.79-7.41,377.74-10.37
							s255.26-17.78,255.26-17.78L1345.72,1733.09z"/>
					</g>
				</g>
				<g class="st10">
					<g>
						<path class="st11" d="M1221.88,1656.83c-47.82,4.56-135.45,12.03-218.82,14.04c-122.95,2.96-377.74,10.37-377.74,10.37
							l-106.3,91.43c0,0-1.84,83.55,73.71,93.09h-42.48c-75.55-9.54-73.65-93.09-73.65-93.09l106.24-91.43
							c0,0,254.79-7.41,377.74-10.37s255.26-17.78,255.26-17.78L1221.88,1656.83z"/>
					</g>
				</g>
				<g class="st12">
					<g>
						<g>
							<path class="st2" d="M795.14,2285.69c-12.09,4.03-24.29,7.76-36.5,11.2c-10.19,2.9-20.38,5.57-30.63,8.12
								c9.6-2.9,19.2-5.93,28.74-9.13c11.61-3.91,23.17-8,34.6-12.38h0.06c0.65,0.36,1.24,0.77,1.9,1.13
								C793.89,2284.97,794.54,2285.33,795.14,2285.69z"/>
						</g>
					</g>
					<g>
						<g>
							<path class="st2" d="M1267.74,1874.76c-6.76,11.91-14.75,24.53-22.69,36.56c-8.12,12.15-16.41,24.18-25.12,35.91
								c-17.3,23.58-35.67,46.45-54.99,68.56c-1.24,1.48-2.55,2.9-3.85,4.33c-5.27-1.42-10.55-3.02-15.7-4.92
								c-7.82-2.67-15.7-5.04-23.46-7.88l-22.87-9.24c-7.7-2.9-15.11-6.58-22.46-10.19l-11.08-5.33c-3.73-1.72-7.35-3.56-10.9-5.69
								c-28.97-15.23-56.05-33.72-81.3-54.04c-9.95-7.94-19.38-16.41-28.5-25.12c0.24-0.3,0.47-0.65,0.65-1.01
								c4.74-7.58,9.01-15.05,13.51-23.52l-32.35-14.81c-1.84,4.44-3.97,9.12-6.22,13.86c-2.37-2.73-4.8-5.57-7.05-8.35
								c-2.43-2.96-4.98-6.28-6.76-8.83l-28.32,21.45c3.38,3.97,6.16,6.99,9.36,10.25c3.02,3.2,6.16,6.22,9.36,9.24
								c2.43,2.43,4.98,4.74,7.52,7.05c-3.97,7.29-8.3,14.46-12.44,21.75l-13.45,21.45c-18.37,28.38-39.05,55.34-61.56,80.82
								c-10.84,12.86-22.93,24.53-34.72,36.62l-8.47-4.56c-12.32-7.11-24.35-14.64-36.56-21.86c-6.16-3.56-12.09-7.47-17.89-11.49
								l-17.66-11.85l-8.77-5.98l-8.47-6.34l-16.95-12.68c-5.75-4.09-10.84-8.95-16.35-13.33c-5.27-4.56-10.9-8.83-15.94-13.63
								l-15.35-14.28c-4.92-4.86-9.66-9.9-14.46-14.81c-4.68-5.04-9.12-10.25-13.51-15.41l-6.16-7.88l-2.78-3.91l-1.36-1.96
								l-0.95-1.48l-30.1,18.9c5.33,7.7,10.07,12.86,15.23,18.78c5.21,5.51,10.43,11.02,15.82,16.24
								c5.45,5.1,10.84,10.25,16.41,15.23l17.06,14.22c5.57,4.86,11.67,9.01,17.48,13.51c5.98,4.33,11.61,9.07,17.83,13.04
								l18.19,12.27l9.13,6.1l9.36,5.69l18.78,11.26c6.22,3.79,12.5,7.53,18.96,10.84c12.92,6.81,25.6,13.86,38.57,20.44l1.6,0.77
								c-0.65,0.59-1.3,1.19-1.96,1.78l-9.54,8.59l-9.95,8c-6.7,5.27-13.33,10.72-20.15,15.88l-21.09,14.64
								c-3.56,2.43-6.99,4.98-10.67,7.23l-11.08,6.58l-22.22,13.09l23.29-11.14l11.67-5.63c3.85-1.96,7.52-4.21,11.32-6.34
								l22.52-12.92c7.35-4.56,14.46-9.54,21.69-14.28l10.84-7.23l10.37-7.82c2.19-1.66,4.33-3.32,6.52-4.98l26.19,12.44
								c6.52,3.2,13.15,5.98,19.91,8.77l20.03,8.35c26.49,11.67,53.98,20.8,81.06,30.87l10.19,3.67l10.31,3.26l20.62,6.46
								l33.77,10.61c-10.19,7.52-20.5,14.87-30.99,21.98c-24.59,16.24-49.59,31.94-75.73,45.86c-32.35,17.66-66.01,33-100.55,46.28
								c0.65,0.36,1.24,0.77,1.9,1.13c0.59,0.36,1.24,0.71,1.84,1.07c34.37-11.32,68.14-24.83,100.85-40.59
								c27.08-12.68,53.15-27.32,78.93-42.54c14.58-8.83,28.86-18.07,42.96-27.67c23.94,6.4,47.88,12.98,71.81,19.14l84.2,19.02
								l-83.01-23.29c-21.57-6.75-42.96-13.81-64.41-20.8c7.76-5.33,15.41-10.78,23.05-16.35c48.05-35.73,93.38-75.43,135.1-118.8
								c0.59-0.65,1.24-1.3,1.84-1.96c2.01,0.3,3.97,0.59,5.98,0.95l6.16,0.95l6.28,0.59l12.44,1.07l24.95,2.19l-24.59-4.39
								l-12.27-2.19l-6.1-1.07l-6.04-1.54c-0.95-0.24-1.96-0.53-2.9-0.71c18.84-19.73,36.91-40.23,54.16-61.45
								c9.54-11.61,18.78-23.64,27.79-35.79c9.07-12.27,17.6-24.29,26.19-37.86L1267.74,1874.76z M1038.61,2138.56
								c-10.19,8.3-20.56,16.35-31.05,24.23l-38.99-14.52l-20.15-7.47l-10.07-3.79l-9.9-4.15c-26.31-11.32-52.97-21.75-78.51-34.6
								l-19.32-9.24c-6.46-3.08-12.86-6.16-19.08-9.66l-16.59-8.89c11.85-10.07,23.88-20.15,34.9-31.11
								c25.24-24.06,48.94-49.95,70.45-77.62l15.82-21.03c4.09-5.87,8.3-11.73,12.32-17.66c9.42,7.47,19.02,14.58,28.97,21.15
								c28.38,19.02,58.19,35.61,89.47,48.71c3.79,1.78,7.76,3.38,11.73,4.8l11.85,4.5c7.88,2.96,15.76,6.1,23.88,8.35l24.18,7.35
								c8.12,2.13,16.35,3.85,24.53,5.81c4.09,1.07,8.18,2.01,12.27,2.84C1119.49,2066.8,1080.32,2104.19,1038.61,2138.56z"/>
						</g>
					</g>
					<g>
						<g>
							<path class="st2" d="M1182.3,2327.7c-6.58,8-12.86,14.99-19.49,22.16c-6.52,7.11-13.27,13.98-20.03,20.74
								c-6.76,6.87-13.87,13.33-20.74,19.97c-7.05,6.52-14.28,12.8-21.45,19.14c-1.54,1.3-3.02,2.61-4.56,3.91
								c14.64,3.2,29.45,5.81,44.32,7.76c-15.88-1.01-31.7-2.73-47.46-5.04h-0.06c-26.66,22.4-54.75,43.08-84.08,61.74
								c-31.94,20.74-66.07,38.04-101.03,52.62l-26.49,10.31c-0.59,0.18-1.19,0.41-1.78,0.59c10.31,5.63,20.68,11.08,31.17,16.35
								c26.96,13.27,54.69,24.95,83.13,35.02c28.56,9.6,57.89,17.06,87.99,21.51c-30.34-1.54-60.62-6.04-90.48-12.98
								c-29.63-7.35-58.96-16.47-87.69-27.26c-18.61-7.17-36.97-14.81-55.16-23.05l-7.82,2.37l-13.87,3.08l-27.61,5.98l27.02-8.18
								l13.45-4.03l3.79-1.54c-8.12-3.73-16.18-7.53-24.23-11.5c-27.67-13.69-54.51-28.03-81.41-44.68l20.62-29.03
								c23.05,17.72,48.35,34.66,73.65,50.37c13.21,8.12,26.55,16,40.11,23.52c2.25-0.89,4.44-1.78,6.64-2.73l25.3-12.27
								c33.18-17.01,65.12-36.44,94.63-59.13c21.81-16.47,42.72-34.01,62.57-52.68c-15.17-2.96-30.22-6.52-45.15-10.37
								c-40.77-10.9-80.64-25.01-119.99-40.41c-39.23-15.58-77.62-33.18-115.54-51.97c-7.35-3.67-14.69-7.41-21.92-11.14
								c12.21-3.44,24.41-7.17,36.5-11.2c35.31,20.62,71.28,40.29,108.14,58.07c37.63,17.89,75.9,34.54,115.37,48.11
								c15.58,5.27,31.4,10.13,47.34,14.4c5.57-5.21,11.02-10.61,16.41-16.06c6.4-6.7,12.92-13.27,19.2-20.03
								c6.1-6.93,12.44-13.63,18.37-20.74c5.98-6.99,11.91-14.1,17.54-21.27c5.69-7.11,11.38-14.64,16.24-21.63L1182.3,2327.7z"/>
						</g>
					</g>
					<g>
						<g>
							<path class="st2" d="M867.9,2758.17c-5.81,0.71-11.67,1.36-17.48,2.13c4.98-1.36,9.95-2.61,14.87-3.91
								C866.12,2756.99,867.01,2757.58,867.9,2758.17z"/>
						</g>
					</g>
					<g>
						<g>
							<path class="st2" d="M795.14,2285.69c-12.09,4.03-24.29,7.76-36.5,11.2c-0.65-0.3-1.3-0.65-1.9-1.01
								c-29.69-15.23-58.9-31.23-87.93-48.82l19.79-29.51c32.83,23.17,67.67,45.15,102.75,65.95h0.06c0.65,0.36,1.24,0.77,1.9,1.13
								C793.89,2284.97,794.54,2285.33,795.14,2285.69z"/>
						</g>
					</g>
					<g>
						<g>
							<path class="st2" d="M1095.85,2652.94c-2.55,2.9-4.44,4.86-6.7,7.05c-2.19,2.13-4.38,4.09-6.58,6.1
								c-4.38,4.03-8.89,7.7-13.45,11.38c-4.62,3.55-9.12,7.11-13.92,10.37l-7.05,4.98l-7.29,4.62
								c-19.38,12.32-39.7,22.69-60.56,31.4c-5.27,2.13-10.61,4.03-15.82,6.04c-5.27,2.07-10.61,3.85-16,5.45
								c-5.33,1.66-10.67,3.44-16.06,4.98l-16.29,4.03l-8.12,2.07l-5.75,1.07c9.07,7.7,18.37,15.05,27.91,22.04
								c15.52,11.14,31.82,21.21,48.82,30.16c17.18,8.59,35.26,15.58,54.16,20.44c-19.38-1.9-38.69-6.16-57.53-12.21
								c-18.72-6.4-36.97-14.22-54.69-23.23c-17.66-9.18-34.78-19.38-51.37-30.4c-0.53-0.36-1.13-0.77-1.66-1.13
								c-0.89-0.59-1.78-1.19-2.61-1.78c-15.17-10.25-29.63-20.92-44.2-33.36l25.3-24.95c11.79,13.63,25.6,27.43,39.52,40.17
								c3.32,3.02,6.7,5.98,10.07,8.89l2.07-0.65l7.82-2.55l7.64-3.08l15.23-6.04c4.98-2.19,9.9-4.62,14.81-6.87
								c4.98-2.25,9.9-4.62,14.58-7.29c4.8-2.61,9.6-5.1,14.28-7.76c18.66-10.96,36.38-23.29,52.68-36.97l6.1-5.16l5.81-5.39
								c3.97-3.5,7.58-7.29,11.26-11.02c3.61-3.79,7.17-7.64,10.49-11.55c1.66-1.96,3.32-3.91,4.8-5.93
								c1.48-1.84,3.14-4.15,4.03-5.51L1095.85,2652.94z"/>
						</g>
					</g>
				</g>
				<g>
					<g>
						<path class="st2" d="M1263.41,1883.53H550.25c-0.75,0-1.49-0.05-2.23-0.14c-72.34-9.14-89.99-76.67-89.22-111.11
							c0.21-9.68,8.13-17.38,17.76-17.38c0.13,0,0.27,0,0.41,0.01c9.8,0.22,17.56,8.32,17.37,18.11c-0.1,6.94,0.69,67.1,57.08,74.96
							h711.99c27.17,0,50.61-20.28,54.51-47.17l10.2-70.27c1.41-9.71,10.44-16.46,20.14-15.04c9.72,1.41,16.45,10.43,15.04,20.15
							l-10.2,70.27C1346.69,1850.16,1308.13,1883.53,1263.41,1883.53z"/>
					</g>
				</g>
				<g>
					<g>
						<g>
							<path class="st13" d="M1305.01,1857.52c-23.46-12.62-34.9-29.69-41.71-47.58c-12.8-33.66-9.3-70.27-38.28-85.74
								c-3.5-1.9-6.93-3.26-10.31-4.15c-40.06-10.78-74.66,40.23-98.6,73c-25.95,35.55-82.24,48.17-128.11,24.47
								c-46.34-23.88-40.77-92.61-82.24-86.69c-16.59,2.37-30.75,12.32-40.77,27.97c-15.05,23.29-21.03,59.19-12.56,100.97
								c14.1,69.56-25.95,140.67-94.81,131.07c-68.85-9.6-71.1-62.93-68.85-105.94c2.19-42.9,17.01-123.66-42.25-151.81
								s-106.66,90.36-181.49,31.88c-42.07-32.94-41.24-71.22-32.47-98.48c5.39-16.83,15.35-31.88,27.67-44.62
								c37.98-39.05,42.19-73.47,62.33-125.79c21.75-56.29,140.25-327.37,436.52-315.52c12.15,0.47,23.94,1.42,35.37,2.84
								c268.54,32.23,356.59,300.53,360.91,379.34c4.38,82.18,0.71,97.77,41.48,168.87
								C1437.56,1802.71,1372.38,1893.79,1305.01,1857.52z"/>
						</g>
					</g>
					<g class="st10">
						<g>
							<path class="st11" d="M748.03,1974.58c-52.2-15.46-53.92-63.1-51.85-102.27c1.84-35.37,12.21-96.52-17.48-132.67
								c3.56,0.65,7.17,1.84,10.78,3.56c59.25,28.15,44.44,108.91,42.25,151.87C730.31,1921.9,730.67,1952.83,748.03,1974.58z"/>
						</g>
					</g>
					<g class="st10">
						<g>
							<path class="st11" d="M1173.88,1252.37c-49.3-27.73-108.55-46.28-179.24-49.12c-117.56-4.68-207.15,35.14-273.81,88.52
								c-3.08,56.65-35.97,86.75-91.43,96.88c-40.77,56.17-62.99,108.67-71.28,130.12c-20.15,52.32-24.35,86.75-62.33,125.85
								c-12.32,12.68-22.28,27.73-27.67,44.62c-8,24.83-9.36,58.84,22.34,89.59c-8.12-2.49-16.59-6.99-25.42-13.87
								c-42.07-32.94-41.24-71.22-32.47-98.48c5.39-16.83,15.35-31.88,27.67-44.62c37.98-39.05,42.19-73.47,62.33-125.79
								c21.75-56.29,140.25-327.37,436.52-315.52C1047.67,1184.11,1118.24,1212.31,1173.88,1252.37z"/>
						</g>
					</g>
					<g>
						<g>
							<path class="st2" d="M769.92,2009.49c-4.84,0-9.77-0.35-14.74-1.04c-89.96-12.57-85.91-90.97-84.18-124.44
								c0.28-5.34,0.74-11.25,1.24-17.56c4.06-51.55,4.57-99.31-33.33-117.31c-16.14-7.68-32.32,2.33-57.34,19.29
								c-31.86,21.6-75.47,51.15-127.45,10.5c-39.37-30.8-53.04-72.66-38.48-117.88c5.99-18.61,16.71-35.95,31.85-51.56l0,0
								c26.26-27.04,34.56-51.34,46.05-84.96c3.74-10.94,7.6-22.24,12.47-34.86c21.9-56.74,146.8-339.13,453.8-326.88
								c299.54,11.98,407.76,296.64,413.3,398.98c0.47,8.78,0.86,16.81,1.21,24.23c2.89,60.64,3.66,76.94,37.94,136.77
								c29.12,50.84,12.06,105.13-16.12,134.06c-27.58,28.31-65.75,34.56-99.58,16.34c-44.34-23.88-53-62.74-59.33-91.12
								c-5.04-22.6-8.48-35.7-20.61-42.17c-26.62-14.18-54.25,19.71-82.6,58.79l-3.55,4.88c-31.94,43.8-98.12,56.88-150.65,29.77
								c-26.94-13.9-39.13-38.82-48.93-58.83c-11.82-24.14-15.24-27.08-22.62-26.02c-13.16,1.88-21.92,10.76-26.94,17.88
								c-14.43,20.44-18.72,54.04-11.47,89.88c9.32,46.11-2.3,93.26-30.33,123.04C820.92,1999.03,796.61,2009.49,769.92,2009.49z
								 M627.49,1710.82c8.57,0,17.45,1.84,26.66,6.21c63.15,29.99,57.12,106.5,53.52,152.21c-0.47,5.97-0.91,11.55-1.17,16.6
								c-2.6,50.24,5.34,80.65,53.59,87.39c26.51,3.7,43.75-7.93,53.55-18.34c19.95-21.2,28.34-57.16,21.38-91.63
								c-9.28-45.92-2.99-88.72,17.27-117.42c12.99-18.4,30.62-29.66,50.97-32.57c34.87-4.98,49.13,24.25,59.57,45.59
								c8.27,16.89,16.82,34.37,33.31,42.87c36.71,18.95,84.11,10.38,105.62-19.12l3.49-4.81c26.92-37.11,71.96-99.23,128.11-69.28
								c27.13,14.47,33.21,41.74,38.57,65.8c5.89,26.42,11.46,51.38,41.48,67.55c28.26,15.21,49.45-1.82,57.26-9.84
								c19.78-20.3,29.82-58.28,10.73-91.59c-38.53-67.26-39.64-90.53-42.6-152.75c-0.35-7.35-0.73-15.3-1.2-24
								c-3.12-57.73-81.59-353.48-379.21-365.38c-275.91-11.06-390.58,230.02-419.2,304.16c-4.62,11.97-8.37,22.94-12,33.55
								c-12,35.13-22.37,65.47-54.18,98.23l0,0c-11.31,11.65-19.22,24.33-23.52,37.68c-10.07,31.3-1.39,57.14,26.55,78.99
								c30.1,23.55,51.09,11.46,85.59-11.93C581.43,1725.58,603.21,1710.82,627.49,1710.82z"/>
						</g>
					</g>
					<g class="st3">
						<g>
							<path class="st2" d="M1305.01,1857.52c-23.46-12.62-34.9-29.69-41.71-47.58c104.58,11.67,77.8-95.93,20.21-140.55
								c-17.3-13.39-30.4-28.74-40.35-43.79c-19.91-30.28-27.73-66.6-25.89-102.74c10.72-210.53-222.79-339.46-222.79-339.46
								c268.54,32.23,356.59,300.53,360.91,379.34c4.38,82.18,0.71,97.77,41.48,168.87
								C1437.56,1802.71,1372.38,1893.79,1305.01,1857.52z"/>
						</g>
					</g>
					<g class="st3">
						<g>
							<path class="st2" d="M1215.83,1714.31l-1.13,5.75c-40.06-10.78-74.66,40.23-98.6,73c-25.95,35.55-82.24,48.17-128.11,24.47
								c-46.34-23.88-40.77-92.61-82.24-86.69c-16.59,2.37-30.75,12.32-40.77,27.97c1.19-8.47,3.85-16.53,8.18-23.76
								c30.63-51.31,86.51-46.46,117.77-8.62c28.15,34.07,56.02,0.74,110.36-47.67C1155.63,1630.4,1215.83,1714.31,1215.83,1714.31z
								"/>
						</g>
					</g>
				</g>
				<g>
					<g>
						<path class="st2" d="M953.9,2935.4c-38.67,0-71.33-23.44-83.73-60.4L533.4,1871.41c-3.12-9.31,1.89-19.38,11.2-22.51
							c9.3-3.11,19.38,1.89,22.5,11.2l336.77,1003.59c9.26,27.57,32.76,36.68,51.98,36.13c19.06-0.61,42.08-11.28,49.55-39.39
							l266.52-1003.9c2.52-9.49,12.28-15.14,21.74-12.62c9.49,2.52,15.14,12.25,12.62,21.74l-266.52,1003.9
							c-10.27,38.69-42.76,64.52-82.76,65.8C955.96,2935.38,954.92,2935.4,953.9,2935.4z"/>
					</g>
				</g>
				<g>
					<g>
						<path class="st9" d="M771.9,2526.28c-162.09,70.47-335.72-331.02-151.26-450.76l47.84,142.56c0,0,37.31,19.4,88.42,20.15
							c51.11,0.74,93.46,113.29-42.89,115.52c178.81-21.23,158.43,102.97,35.99,107.25C772.38,2477.41,793.92,2501.16,771.9,2526.28
							z"/>
					</g>
				</g>
				<g class="st10">
					<g>
						<path class="st11" d="M725.22,2534.13c-145.47-11.91-271.32-350.36-104.58-458.62l12.21,36.44
							C524.59,2225.96,608.79,2475.59,725.22,2534.13z"/>
					</g>
				</g>
				<g>
					<g>
						<path class="st2" d="M733.49,2552.17c-58.65,0-118.82-45.53-162.21-126.29c-65.55-122.02-73.93-291.51,39.68-365.26
							c4.61-2.99,10.35-3.69,15.54-1.88c5.19,1.81,9.25,5.92,10.99,11.13l45.38,135.23c11.89,4.96,39.8,14.86,74.29,15.36
							c34.7,0.5,66.33,36.15,66.36,74.78c0.02,19.06-8.01,38.95-27.51,53.64c46.67,14.88,64.83,39.84,64.7,62.86
							c-0.14,25.58-22.72,52.13-71.94,62.58c5.65,8.27,8.91,16.64,9.85,25.23c1.03,9.42-0.45,23.74-13.36,38.46
							c-1.73,1.97-3.87,3.54-6.28,4.58C764.15,2549.04,748.87,2552.17,733.49,2552.17z M771.9,2526.28h0.06H771.9z M611.73,2104.85
							c-72.61,66.96-63.72,202.59-9.14,304.2c33.75,62.8,95.05,126.34,158.24,102.55c2.87-4.31,2.58-7.03,2.45-8.19
							c-0.38-3.47-3.46-13.17-23.8-28.08c-6.1-4.48-8.7-12.33-6.47-19.57c2.23-7.24,8.8-12.26,16.37-12.53
							c53.44-1.87,75.73-21.56,75.79-31.68c0.06-11.39-27.23-36.16-111.97-40.04c-9.59-0.44-17.1-8.42-16.97-18.02
							c0.14-9.6,7.88-17.36,17.49-17.51c47.22-0.78,74.28-15.61,74.26-40.71c-0.02-18.86-16.12-39.05-31.33-39.27
							c-54.68-0.79-94.68-21.28-96.36-22.15c-4.09-2.12-7.19-5.75-8.65-10.11L611.73,2104.85z"/>
					</g>
				</g>
				<g>
					<g>
						<path class="st2" d="M662.31,2234.75l-53.55-38.75l65.88,5.4c10.16,0.83,17.72,9.74,16.89,19.9
							c-0.83,10.16-9.74,17.72-19.9,16.89C668.16,2237.91,664.94,2236.64,662.31,2234.75z"/>
					</g>
				</g>
				<g>
					<g>
						<path class="st2" d="M709.54,2370.95l-89.67-41.63l98.6,7.22c9.95,0.73,17.43,9.39,16.7,19.34
							c-0.73,9.95-9.39,17.43-19.34,16.7C713.6,2372.42,711.45,2371.83,709.54,2370.95z"/>
					</g>
				</g>
				<g>
					<g>
						<path class="st2" d="M744.92,2478.03l-86.54-44.27l96.67,10.2c9.93,1.05,17.13,9.95,16.08,19.88s-9.95,17.13-19.88,16.08
							C749,2479.68,746.83,2479,744.92,2478.03z"/>
					</g>
				</g>
				<g class="st3">
					<g>
						<path class="st2" d="M1292.92,1869.43L1028.59,2865c-10.78,40.71-49.42,58.13-83.43,51.08
							c70.45-192.04,89.59-577.72,122.18-751.45c41.06-219.24-111.22-280.92-111.22-280.92L1292.92,1869.43z"/>
					</g>
				</g>
				<g class="st3">
					<g>
						<path class="st2" d="M704.18,2238.72c0,0,62.77,80.03-35.71,103.22c0,0,139.98,68.56,24.7,102.17c0,0,57.54,60.27-9.61,70.14
							C986.9,2536.95,1007.52,2261.42,704.18,2238.72z"/>
					</g>
				</g>
			</g>
			<g>
				<g>
					<path class="st6" d="M2510.41,965.97c127.59,131.26,228,263.33,289.39,396.57c12.86,27.92,17.94,59.03,13.66,89.48
						c-3.36,23.9-12.39,49.57-33.64,66.49c-26.97,21.47-67.19,5.98-74.37-27.75c-5.19-24.38-11.06-56.94-15.18-94.42
						c-9.88-89.87-283.43-267.63-283.43-267.63"/>
				</g>
			</g>
			<g class="st3">
				<g>
					<path class="st2" d="M2516.04,965.97c127.59,131.26,228,263.33,289.39,396.57c12.86,27.92,17.94,59.03,13.66,89.48
						c-3.36,23.9-12.39,49.57-33.64,66.49c-26.97,21.47-67.19,5.98-74.37-27.75c-5.19-24.38-11.06-56.94-15.18-94.42
						c-9.88-89.87-283.43-267.63-283.43-267.63"/>
				</g>
			</g>
			<g>
				<g>
					<path class="st2" d="M2751.7,1546.15c-7.27,0-14.62-1.25-21.75-3.81c-21.49-7.71-37.15-25.6-41.89-47.88
						c-6.72-31.61-11.93-63.97-15.47-96.18c-6.52-59.34-172.41-187.69-275.44-254.66c-8.23-5.35-10.57-16.36-5.22-24.59
						c5.35-8.23,16.36-10.57,24.59-5.22c28.72,18.66,280.92,185.11,291.41,280.59c3.41,31.04,8.43,62.22,14.9,92.67
						c2.16,10.14,9.3,18.29,19.11,21.81c9.4,3.36,19.16,1.81,26.8-4.28c14.47-11.52,23.59-30.04,27.1-55.06
						c3.74-26.6-0.48-54.11-12.2-79.56c-57.41-124.61-150.96-252.71-285.99-391.61c-6.84-7.04-6.68-18.29,0.36-25.14
						c7.05-6.84,18.29-6.69,25.14,0.35c137.89,141.84,233.65,273.18,292.78,401.52c14.59,31.65,19.81,66.02,15.12,99.39
						c-4.83,34.33-18.34,60.54-40.17,77.92C2779.53,1541.46,2765.76,1546.15,2751.7,1546.15z"/>
				</g>
			</g>
			<g>
				<g>
					<path class="st6" d="M1779.02,991.09c-40.49,176.59,79.36,347.81,360.43,395.16c41.96,7.07,85.11,6.19,126.39-4.11
						c149.33-37.28,200.68-167.98,230.87-262.31c15.78-49.33,20.08-91.84,19.98-123.86c-0.11-36.45-25.93-67.77-61.58-75.35
						l-501.75-106.74c-51.19-10.89-104.8,4.68-141.15,42.34c-5.12,5.31-7.78,8.83-7.78,8.83c-32.82-20.09-71.53-30.18-116.53-29.63
						l-20.64-35.78c-14.93-25.88-41.46-42.95-71.2-45.8l-418.91-40.23c-38.23-3.67-75.57,13.38-97.53,44.89
						c-28.48,40.86-65.29,103.66-85.15,177.66c-35.37,131.84,34.25,234.05,152.75,262.2s339.22,21.23,401.44-57.77
						c62.56-79.44,114.06-182.2,114.06-182.2c27-30.87,85.43-18.83,112.09,14.21C1779,977.77,1780.51,984.58,1779.02,991.09z"/>
				</g>
			</g>
			<g class="st3">
				<g>
					<path class="st2" d="M1742.24,925.91c4.15,5.22,5.69,12.03,4.21,18.49c-0.47,2.13-0.95,4.21-1.36,6.34
						c-27.02-10.72-58.6-9.07-76.44,11.32c0,0-51.49,102.74-114.06,182.2c-62.22,78.98-282.93,85.92-401.44,57.77
						c-63.82-15.17-113.47-51.85-140.19-103.04c26.78,25,61.39,43.14,101.68,52.68c118.51,28.15,339.22,21.21,401.44-57.77
						c62.57-79.46,114.06-182.2,114.06-182.2C1657.15,880.82,1715.58,892.85,1742.24,925.91z"/>
				</g>
			</g>
			<g class="st3">
				<g>
					<path class="st2" d="M2516.68,995.98c0.12,32-4.21,74.54-19.97,123.84c-30.16,94.33-81.53,225.04-230.85,262.31
						c-41.3,10.31-84.44,11.2-126.39,4.09c-164.9-27.79-274.34-98.18-328.44-187.3c60.91,64.88,157.55,114.65,289.93,136.93
						c41.95,7.11,85.09,6.22,126.39-4.09c149.32-37.27,200.69-167.98,230.85-262.31c15.76-49.3,20.09-91.84,19.97-123.84
						c0-5.93-0.71-11.67-2.01-17.24C2500.5,941.59,2516.56,967.18,2516.68,995.98z"/>
				</g>
			</g>
			<g class="st10">
				<g>
					<path class="st11" d="M2516.68,995.98c0.06,9.18-0.3,19.2-1.19,30.04c-5.33-30.75-29.03-55.7-60.38-62.39l-501.76-106.72
						c-51.19-10.9-104.82,4.68-141.14,42.31c-5.16,5.33-7.76,8.83-7.76,8.83c-32.83-20.09-71.58-30.16-116.55-29.63l-20.62-35.79
						c-14.93-25.89-41.48-42.9-71.22-45.8l-418.92-40.23c-38.22-3.67-75.55,13.39-97.53,44.91c-28.5,40.82-65.3,103.63-85.15,177.64
						c-4.15,15.35-6.87,30.34-8.18,44.85c-2.67-27.26-0.18-56.71,8.18-87.87c19.85-74.01,56.65-136.82,85.15-177.64
						c21.98-31.52,59.31-48.59,97.53-44.91l418.92,40.23c29.75,2.84,56.29,19.91,71.22,45.8l20.62,35.79
						c44.97-0.53,83.72,9.54,116.55,29.63c0,0,2.61-3.5,7.76-8.83c36.32-37.69,89.95-53.21,141.14-42.31l501.76,106.71
						C2490.79,928.19,2516.56,959.48,2516.68,995.98z"/>
				</g>
			</g>
			<g>
				<g>
					<path class="st2" d="M1582.32,910.54c-1.07,3.5-2.37,7.05-4.03,10.78c-12.09,27.32-47.82,80.82-71.81,115.48
						c-18.66,26.96-44.32,48.35-74.54,61.15c-39.11,16.53-99.19,32.71-175.21,24.83c-15.46-1.6-31.64-4.27-48.41-8.06
						c-14.1-3.2-28.68-7.29-43.67-12.32c-7.17-2.43-14.52-5.04-21.92-7.94c-22.99-8.95-41.6-26.66-51.14-49.42
						c-0.71-1.66-1.36-3.32-2.01-5.1c-9.07-24.06-14.28-56.71-1.13-93.92c14.87-41.83,31.11-79.99,42.96-106.42
						c9.9-21.98,33-34.96,56.94-32.11l63.1,7.47l110.63,13.15l48.41,5.75l49.95,5.93l81.65,9.66
						C1571.59,852.88,1590.85,882.16,1582.32,910.54z"/>
				</g>
			</g>
			<g>
				<g>
					<path class="st2" d="M2400.6,1056.77c-14.16,58.84-49.65,158.92-133.02,213.13c-54.93,35.73-131.31,28.8-200.51,2.01
						c-20.68-8-40.71-17.78-59.37-28.74c-23.11-13.51-44.08-28.8-61.45-44.74c-26.72-24.47-44.97-50.42-49.48-73.59
						c-1.24-6.52-2.49-13.04-3.61-19.49c-10.25-58.72-13.1-113.59,13.87-160.04c11.08-19.14,33.18-29.03,54.93-24.71l56.11,11.26
						L2123,952.84l81.89,16.41l69.98,13.98l90.18,18.07C2390.41,1006.41,2406.71,1031.59,2400.6,1056.77z"/>
				</g>
			</g>
			<g class="st10">
				<g>
					<path class="st11" d="M1362.07,828.12l-197.43,274.28c-7.17-2.43-14.52-5.04-21.92-7.94c-22.99-8.95-41.6-26.66-51.14-49.42
						c-0.71-1.66-1.36-3.32-2.01-5.1l161.88-224.98L1362.07,828.12z"/>
				</g>
			</g>
			<g class="st10">
				<g>
					<path class="st11" d="M1460.43,839.79l-203.71,282.99c-15.46-1.6-31.64-4.27-48.41-8.06l202.17-280.86L1460.43,839.79z"/>
				</g>
			</g>
			<g class="st10">
				<g>
					<path class="st11" d="M2123,952.84l-176.75,245.6c-26.72-24.47-44.97-50.42-49.48-73.59c-1.24-6.52-2.49-13.04-3.61-19.49
						l124.91-173.49L2123,952.84z"/>
				</g>
			</g>
			<g class="st10">
				<g>
					<path class="st11" d="M2274.87,983.24l-207.8,288.68c-20.68-8-40.71-17.78-59.37-28.74l197.19-273.93L2274.87,983.24z"/>
				</g>
			</g>
			<g>
				<g>
					<path class="st2" d="M2193.83,1408.65c-18.87,0-38.01-1.63-57.33-4.88c-154.98-26.11-270.28-89.84-333.43-184.31
						c-46.1-68.97-60.41-149.32-41.37-232.35l0,0c0.28-1.23,0.02-2.47-0.72-3.38c-11.95-14.82-33.45-25.04-53.51-25.44
						c-8.95-0.2-21.24,1.52-30,10.31c-8.18,16.05-56.29,108.62-114.83,182.95c-72.32,91.82-307.93,90.57-419.51,64.07
						c-64.14-15.24-116.06-51.46-146.21-102.01c-30.89-51.8-37.67-114.76-19.6-182.09c20.67-77.06,59.12-142.17,87.73-183.21
						c25.52-36.62,69.1-56.71,113.81-52.42l418.92,40.23c35.4,3.4,67.13,23.81,84.9,54.62l15.55,26.94
						c37.9,0.89,72.27,9.23,102.5,24.85c39.97-40.47,99.69-58.12,156.35-46.06l501.75,106.74c43.71,9.3,75.52,48.28,75.66,92.68
						c0.13,42.22-6.88,85.73-20.83,129.34c-36.7,114.66-94.32,236.89-243.5,274.14C2245.38,1405.56,2219.86,1408.65,2193.83,1408.65
						z M1706.24,922.73c0.64,0,1.28,0.01,1.92,0.02c30.44,0.61,62.02,15.78,80.48,38.66c7.63,9.46,10.44,21.72,7.7,33.65l0,0
						c-16.79,73.25-4.25,144.02,36.28,204.65c57.57,86.12,164.69,144.56,309.78,169c41.11,6.92,81.19,5.64,119.13-3.83
						c132.24-33.02,184.54-145.15,218.25-250.48c12.82-40.06,19.25-79.89,19.14-118.39c-0.08-27.78-20.06-52.18-47.5-58.02
						l-501.75-106.74c-45.36-9.65-93.14,4.64-124.66,37.3c-4.17,4.33-6.39,7.21-6.42,7.24c-5.53,7.22-15.67,9.15-23.43,4.4
						c-30.11-18.43-66.24-27.55-107.03-27.01c-6.42,0.14-12.4-3.32-15.62-8.89l-20.65-35.78c-12.03-20.86-33.53-34.69-57.51-36.99
						l-418.92-40.23c-31.94-3.07-63.05,11.25-81.25,37.36c-26.99,38.72-63.22,100-82.56,172.1
						c-15.51,57.83-10.05,111.31,15.8,154.67c25.18,42.22,69.18,72.63,123.89,85.63c116.3,27.62,328.53,18.18,383.37-51.47
						c60.67-77.05,111.63-178.16,112.14-179.17c0.67-1.35,1.52-2.6,2.51-3.74C1662.87,931.19,1683.02,922.73,1706.24,922.73z
						 M1779.02,991.09h0.06H1779.02z"/>
				</g>
			</g>
			<g>
				<g>
					<path class="st2" d="M1296.4,1142.78c-47.01,0-100.72-8.59-160.14-31.77c-27.54-10.75-49.79-32.28-61.04-59.08
						c-10.68-25.43-19.95-65.47-3.51-111.85c15.31-43.17,32.11-82.42,43.51-107.74c13.14-29.18,43.36-46.27,75.21-42.48l0,0
						l353.77,41.91c19.34,2.29,36.55,12.95,47.21,29.24c10.62,16.22,13.51,36.16,7.91,54.7c-1.27,4.19-2.86,8.5-4.76,12.79
						c-12.32,27.88-46.75,79.78-73.48,118.41c-20.88,30.19-49.31,53.5-82.21,67.42C1403.14,1129.42,1354.98,1142.78,1296.4,1142.78z
						 M1181.74,824.89c-14.65,0-27.99,8.46-34.11,22.04c-11.13,24.71-27.51,62.98-42.41,105.01c-10.15,28.63-9.22,57.64,2.78,86.21
						c7.55,17.98,22.56,32.45,41.18,39.72c122.34,47.73,217.53,28.35,275.83,3.69c26.69-11.28,49.79-30.27,66.83-54.9
						c36.54-52.82,61.46-92.79,70.19-112.53c1.3-2.95,2.4-5.89,3.25-8.71c2.55-8.45,1.23-17.54-3.62-24.95
						c-4.89-7.47-12.78-12.36-21.65-13.41l-353.77-41.91C1184.74,824.98,1183.23,824.89,1181.74,824.89z"/>
				</g>
			</g>
			<g>
				<g>
					<path class="st2" d="M2176.35,1312.11c-39.39,0-82.93-9.53-127.87-28.57c-89.13-37.77-158.69-101.64-169.15-155.31
						c-12.04-61.76-22.01-132.61,12.3-191.81c14.92-25.72,44.58-39.07,73.78-33.21l0,0l403.1,80.7
						c17.15,3.43,31.78,13.44,41.19,28.18c9.35,14.65,12.27,31.99,8.2,48.85c-14.16,58.67-51.26,165.76-140.62,223.9
						C2249.33,1303.02,2214.81,1312.11,2176.35,1312.11z M1951.72,937.39c-11.94,0-23.2,6.28-29.33,16.85
						c-25.39,43.82-21.95,96.45-8.16,167.18c7.93,40.71,73,97.54,148.13,129.38c77.75,32.94,149.02,34.48,195.56,4.22
						c79.04-51.43,112.52-148.91,125.44-202.44c1.78-7.36,0.49-14.95-3.6-21.38c-4.16-6.51-10.62-10.93-18.21-12.45l-403.1-80.71
						C1956.19,937.61,1953.94,937.39,1951.72,937.39z"/>
				</g>
			</g>
			<g>
				<g>
					<path class="st2" d="M1744.08,1401.81c-52.5,51.08-64.05,122.77-64.05,122.77s-242.11,119.16-210.29,38.04
						c31.88-81.06,15.82-198.85,15.82-198.85C1540.15,1437.45,1626.91,1449,1744.08,1401.81z"/>
				</g>
			</g>
			<g>
				<g>
					<path class="st9" d="M2299.1,2883.96c26.37,65.06,26.31,134.86,1.36,208.99c-12.09,33.3-23.82,55.99-35.14,70.04
						c-20.38,25.3-39.64,22.81-58.25,4.03c-36.26,85.92-124.43,58.54-127.57,25.95c-61.74-8.18-37.09-66.42-28.2-101.03
						c8.89-34.55,16.83-120.46-13.81-153.05c-30.63-32.59-151.1-45.92-125.91-97.77c18.07-37.27,83.37-43.91,118.68-44.74
						c16.35-0.35,31.88-7.29,43.08-19.14c32.59-34.43,96.52-114.42,128.11-239.32c14.81-58.48,25.24-114.77,32.53-163.6
						c14.22-94.69,16.83-161.29,16.83-161.29l154.06-30.63c4.68,218.05-35.14,406.65-105.12,575.17
						C2282.98,2797.99,2282.63,2843.44,2299.1,2883.96z"/>
				</g>
			</g>
			<g class="st10">
				<g>
					<path class="st11" d="M1953.83,2845.92c-24.12,52.32,96.58,63.28,127.81,95.28c31.29,32,25.06,118.03,16.83,152.75
						c-8.18,34.78-31.7,93.5,30.22,100.44c1.24,10.66,11.67,20.62,26.31,26.07c-36.03,12.38-73.47-6.46-75.49-27.49
						c-61.74-8.18-37.09-66.42-28.2-101.03c8.89-34.55,16.83-120.46-13.81-153.05c-30.63-32.59-151.1-45.92-125.91-97.77
						c18.07-37.27,83.37-43.91,118.68-44.74c16.35-0.35,31.88-7.29,43.08-19.14c32.59-34.43,96.52-114.42,128.11-239.32
						c14.81-58.48,25.24-114.77,32.53-163.6c8.41,3.44,19.55,9.36,30.22,19.44c-6.22,43.85-14.75,92.73-26.55,143.33
						c-29.09,125.5-91.43,206.74-123.31,241.81c-10.96,12.03-26.37,19.26-42.72,19.97
						C2036.31,2800.42,1971.19,2808.3,1953.83,2845.92z"/>
				</g>
			</g>
			<g>
				<g>
					<path class="st2" d="M2250.81,2213.04c1.24,51.91-1.5,103.92-6.25,155.77c-4.61,51.89-12.05,103.61-22.23,154.97l-3.85,19.28
						l-4.74,19.44c-3.52,12.87-7.62,25.6-12.34,38.09c-9.48,24.97-20.66,49.26-33.11,72.87c-12.48,23.6-26.62,46.33-42.31,68
						c-7.96,10.76-16.15,21.36-24.91,31.55c-4.4,5.08-8.86,10.12-13.48,15.05c-1.02,1.14-2.55,2.68-4.04,4.16
						c-1.53,1.42-3.06,2.83-4.7,4.13c-3.24,2.63-6.65,5.05-10.27,7.12c-7.21,4.2-15.08,7.25-23.25,8.98
						c-4.08,0.9-8.24,1.4-12.41,1.63l-9.81,0.37c-12.27,0.58-24.46,1.77-36.26,3.85c-11.76,2.08-23.25,5.03-33.28,9.42
						c-10.05,4.34-18.46,10.2-23.4,16.87c-0.92,1.75-2.28,3.53-2.91,5.14c-0.75,1.66-1.13,3.06-1.21,4.11
						c-0.12,2.04,0.03,3.19,1.85,5.97c1.92,2.66,5.5,5.87,9.81,8.81c4.37,2.96,9.43,5.75,14.73,8.39
						c10.65,5.31,22.38,10,34.35,14.86c12.01,4.91,24.33,9.73,37,16.22c6.34,3.3,12.78,6.92,19.36,12.06
						c1.64,1.3,3.28,2.61,4.93,4.26c1.72,1.55,3.19,3.19,4.49,4.91c2.73,3.38,5.52,6.82,7.33,10.41
						c8.25,14.29,11.85,28.79,14.24,42.85c4.43,28.21,3.34,55.39,0.1,82.46c-0.83,6.78-1.9,13.52-3.27,20.37
						c-0.6,3.39-1.5,6.91-2.29,10.37l-2.67,9.82c-3.54,12.56-7.1,24.39-8.53,35.28c-1.49,10.83-0.69,20.51,2.93,24.72
						c0.57,1.38,2.05,2.14,3.04,3.3c1.34,0.98,3.02,1.82,4.65,2.79c2.15,0.61,3.98,1.55,6.29,2.14c2.47,0.44,4.91,0.93,7.36,1.46
						l0.04,0.01l4.12,0.9c7.04,1.53,11.74,8.01,11.25,14.99c-0.02,0.3,1.06,3.09,4.27,5.75c3.15,2.63,7.46,5.13,12.29,6.75
						c9.68,3.33,20.77,3.82,30.89,1.29c10.16-2.52,19.55-7.89,27.27-15.79c7.89-7.69,13.95-17.95,18.8-28.99l0.05-0.11l0.28-0.59
						c4.14-8.89,14.7-12.75,23.59-8.61c1.95,0.91,3.7,2.17,5.13,3.61c6.39,6.45,12.82,9.7,15.77,9.12c1.61,0.26,3.84-1.12,6.56-2.57
						c1.37-1.29,2.82-2.12,4.27-3.6c1.42-1.62,2.94-2.94,4.37-4.72c11.63-14.36,20.84-34.52,28.63-54.39
						c15.34-39.71,23.54-82.79,21.57-124.77c-1.14-21.01-4.65-41.85-10.88-61.93c-1.64-5-3.17-10.03-5.14-14.92l-2.88-7.63
						c-1.07-2.93-2.28-5.8-3.2-8.78c-3.97-11.81-6.74-24.02-8.24-36.38c-3.02-24.72-0.94-50.03,6.03-73.92
						c1.73-5.98,3.79-11.85,6.11-17.62l6.25-15.64c4.18-10.29,8.28-20.61,12.06-31.05c3.88-10.4,7.66-20.84,11.1-31.4
						c3.52-10.53,7.19-21.01,10.25-31.68c3.18-10.63,6.5-21.22,9.29-31.96c2.87-10.72,6.06-21.34,8.68-32.12
						c11.18-42.91,22.24-85.94,31.06-129.59c17.65-87.31,27.75-176.41,33.46-266.51c9.1,89.81,8.35,181.07-2.64,271.49
						c-5.63,45.17-13.3,90.27-25.19,134.34c-5.89,22.04-12.58,43.86-19.86,65.47c-3.49,10.85-7.26,21.61-11.07,32.35
						c-3.66,10.79-7.76,21.43-11.79,32.09c-3.88,10.72-8.09,21.3-12.37,31.86l-6.27,15.7c-1.87,4.67-3.54,9.42-4.94,14.24
						c-5.63,19.3-7.3,39.74-4.87,59.68c1.21,9.97,3.43,19.81,6.64,29.32c0.73,2.4,1.74,4.71,2.58,7.07l3.08,8.15
						c2.22,5.56,3.99,11.28,5.85,16.98c7.11,22.89,11.14,46.77,12.42,70.66c1.04,23.91-0.59,47.86-4.79,71.18
						c-2.18,11.64-4.66,23.22-7.93,34.52c-3.07,11.35-6.88,22.81-11.21,33.66c-8.77,21.8-17.86,43.44-34.49,64.32
						c-2.1,2.59-4.72,5.12-7.1,7.64c-2.5,2.51-5.76,4.86-8.68,7.19c-1.68,1.1-3.56,2.13-5.37,3.14c-1.83,1-3.58,2.04-5.84,2.71
						c-2.14,0.74-4.32,1.43-6.49,2.05c-2.28,0.44-4.69,0.65-7.04,0.87c-9.43,0.52-18.93-2.19-25.61-6.22
						c-7.2-3.86-12.39-8.64-17.39-13.37l29-5.59l-0.07,0.15c-6.24,14.27-14.43,28.45-26.38,40.25
						c-11.66,11.93-27.12,21.09-43.91,25.18c-16.79,4.13-34.52,3.45-51.08-2.23c-8.29-2.86-16.36-7.11-23.82-13.41
						c-3.68-3.3-7.29-6.91-10.28-11.81c-2.98-4.8-5.44-10.66-6.15-17.39l15.36,15.89l-0.07-0.01l-11.67-2.31
						c-3.94-1.01-8.06-2.72-12.03-4.18c-4.01-2.06-8.13-4.31-11.9-7.21c-3.68-3.29-7.48-6.46-10.14-10.79
						c-3.15-4.04-4.92-8.51-6.72-13.01c-0.89-2.24-1.2-4.41-1.77-6.64c-0.51-2.22-1.04-4.47-1.12-6.53l-0.51-6.33
						c-0.11-2.08,0.05-4,0.07-6.01c0.01-4.07,0.56-7.72,0.98-11.49c2.01-14.79,6.11-27.8,9.53-40.13l2.42-8.9
						c0.63-2.84,1.37-5.58,1.89-8.57c1.17-5.83,2.13-11.87,2.87-17.94c2.95-24.2,3.76-49.29,0.07-72.26
						c-1.85-11.37-4.98-22.33-9.75-30.46c-1.05-2.26-2.51-3.74-3.78-5.43c-0.61-0.91-1.28-1.68-2-2.27
						c-0.61-0.67-1.51-1.37-2.41-2.07c-3.61-2.85-8.44-5.69-13.58-8.34c-10.36-5.33-22.15-10.02-34.08-14.88
						c-11.98-4.88-24.32-9.77-36.85-15.99c-6.26-3.14-12.58-6.56-18.93-10.86c-6.31-4.39-12.84-9.56-18.6-17.37
						c-2.78-4.07-5.39-8.64-6.91-14.03c-0.78-2.68-1.4-5.4-1.54-8.23c-0.35-2.84-0.2-5.55,0.09-8.25c1.2-10.97,5.8-18.86,10.57-26.2
						c10.54-14.25,24.65-22.87,38.2-28.81c13.71-5.94,27.51-9.34,41.19-11.79c13.69-2.41,27.3-3.71,40.87-4.36l9.58-0.35
						c2.28-0.13,4.57-0.38,6.81-0.89c4.49-0.95,8.82-2.63,12.8-4.95c2-1.13,3.87-2.48,5.66-3.93c0.91-0.71,1.73-1.5,2.59-2.27
						c0.8-0.82,1.56-1.54,2.71-2.81c4.23-4.51,8.34-9.16,12.41-13.85c8.11-9.43,15.75-19.32,23.17-29.35
						c14.65-20.24,27.92-41.55,39.62-63.69c11.74-22.13,21.52-45.28,29.74-68.92c4.4-11.72,7.91-23.75,11.83-35.64l5.54-17.98
						l5.3-18.44C2217.21,2417.26,2237.24,2315.82,2250.81,2213.04z"/>
				</g>
			</g>
			<g>
				<g>
					<path class="st2" d="M2074.51,3175.87c15.28-3.25,30.07-11.98,41.72-25.9c11.84-13.62,21.16-30.63,28.65-48.54
						c14.99-36.08,23.47-75.59,29.89-115.14c-0.58,40.12-2.99,80.59-13.02,120.74c-5.12,20.01-12.23,40.08-24.1,58.82
						c-11.43,18.79-30.09,35.61-53.2,44.15l-0.06,0.02c-9.23,3.41-19.49-1.31-22.9-10.54s1.31-19.49,10.54-22.9
						C2072.82,3176.3,2073.71,3176.05,2074.51,3175.87z"/>
				</g>
			</g>
			<g>
				<g>
					<path class="st2" d="M1489.62,1608.73c-16.23,0-24.77-4.5-30.69-9.94c-6.16-5.67-15.1-18.75-5.72-42.64
						c29.72-75.73,14.86-188.88,14.7-190.01l35.23-4.79c0.68,5,16.3,123.37-16.84,207.8c-0.65,1.64-1.04,2.94-1.28,3.92
						c20.58,4.37,100.4-22.54,179.35-60.62c5.17-22.23,22.16-79.4,67.31-123.36l24.8,25.47c-47.42,46.17-58.81,112.25-58.92,112.91
						c-0.94,5.66-4.55,10.55-9.69,13.08c-1.86,0.91-46.15,22.65-94.9,41.4C1540.85,1601.98,1509.48,1608.73,1489.62,1608.73z"/>
				</g>
			</g>
			<g>
				<g>
					<path class="st2" d="M2190.19,3161.57c6-14.6,11.51-30.83,16.34-46.71c4.88-16.01,9.13-32.28,12.78-48.71
						c3.72-16.43,6.76-33.05,9.04-49.83c2.51-16.77,3.73-33.7,4.68-50.76c2.01,16.92,3.76,34.03,4.19,51.2
						c0.66,17.19,0.55,34.45-0.3,51.72c-0.78,17.28-2.19,34.57-4.3,51.83c-2.15,17.39-4.67,34.24-8.6,52.16
						c-2.11,9.63-11.63,15.73-21.26,13.62s-15.73-11.63-13.63-21.26c0.22-1,0.52-1.96,0.89-2.88L2190.19,3161.57z"/>
				</g>
			</g>
			<g>
				<g>
					<path class="st2" d="M1434.6,1271.92c10.17,18.58,20.89,35.9,33.32,51.23c12.42,15.3,26.41,28.53,41.78,39.24
						c15.39,10.68,31.59,19.51,48.76,26.88c17.13,7.43,35.73,12.31,54.83,13.83c19.09,1.68,38.47,0.21,57.54-2.81
						c19.1-3.02,38.1-7.06,57.2-11.79c19.12-4.71,38.12-10.7,57.28-17.28c19.12-6.71,38.21-14.28,58.14-21.79
						c-13.9,16.1-30.11,30.03-47.67,42.19c-17.53,12.25-36.54,22.62-56.65,30.7c-20.11,8.06-41.42,13.57-63.21,16.02
						c-21.8,2.44-43.9,2.32-65.9,0.27c-21.98-2.15-44.08-6.22-65.34-13.93c-21.24-7.65-41.12-19.88-57.3-35.75
						C1454.53,1357.37,1436.33,1314.03,1434.6,1271.92z"/>
				</g>
			</g>
			<g>
				<g>
					<g>
						<path class="st14" d="M1680,1524.58c0,0-20.24,30.01-30.61,116.67c-15.24,122.53-162.7,165.61-208.72,73.27
							c-13.78-27.64-14.25-60-4.17-89.19c25.73-74.53,70-114.09,148.46-89.25C1611.25,1517.09,1643.88,1515.93,1680,1524.58z"/>
					</g>
				</g>
				<g class="st10">
					<g>
						<path class="st11" d="M1670.13,1529.74c0,0-4.74,7.11-10.9,24.35c-29.45-4.5-56.11-1.18-78.27,14.81
							c-78.45-24.89-122.71,14.69-148.43,89.24c-5.63,16.29-7.94,33.6-6.52,50.48c-8.95-25-8.18-52.79,0.59-78.15
							c25.72-74.48,69.98-114.06,148.43-89.24C1601.34,1522.28,1633.98,1521.09,1670.13,1529.74z"/>
					</g>
				</g>
				<g class="st3">
					<g>
						<path class="st2" d="M1680.02,1524.58c0,0-20.26,30.04-30.63,116.67c-15.23,122.54-162.71,165.61-208.75,73.3
							c-11.79-23.7-13.81-50.9-7.82-76.56c46.34,57.48,160.81,43.26,202.76-51.19c12.32-28.09,23.76-49.06,33.42-64.53
							C1672.62,1522.92,1676.29,1523.69,1680.02,1524.58z"/>
					</g>
				</g>
				<g>
					<g>
						<path class="st2" d="M1521.25,1782.02c-41.74,0-77.6-21.66-96.49-59.58c-15.24-30.58-17.09-68.09-5.06-102.92
							c30.8-89.22,85.43-123.79,162.38-102.82c27.17-16.25,60.67-19.33,102.06-9.41c5.67,1.36,10.31,5.41,12.43,10.84
							c2.09,5.37,1.45,11.42-1.72,16.23c-0.56,0.89-18.38,30.18-27.81,109.01c-10.09,81.14-71.53,127.78-124.35,136.81
							C1535.42,1781.41,1528.24,1782.02,1521.25,1782.02z M1541.78,1546.49c-40.68,0-68.69,27.29-88.47,84.64
							c-8.93,25.87-7.74,53.37,3.27,75.46c15.03,30.14,44.99,44.55,80.13,38.54c40.28-6.89,87.21-43.01,95.05-106.07
							c5.96-49.84,15.13-81.96,22.41-101.1c-24.33-2.76-43.34,1.37-58.8,12.54c-4.56,3.29-10.42,4.24-15.77,2.53
							C1565.9,1548.69,1553.33,1546.49,1541.78,1546.49z"/>
					</g>
				</g>
				<g>
					<g>
						<path class="st2" d="M1593.97,1547.83c-0.3,0.05-1.56,0.94-2.44,1.59c-0.96,0.65-1.95,1.52-2.93,2.28
							c-1.94,1.64-3.95,3.33-5.82,5.22c-3.86,3.64-7.46,7.74-10.95,11.98c-6.95,8.53-13.05,18.01-18.52,27.98
							c-5.43,10-10,20.59-14,31.48c-2.06,5.43-3.61,11.04-5.45,16.61l-4.44,17.03l0.8-17.69c0.64-5.87,1-11.83,1.91-17.72
							c1.68-11.81,4.04-23.64,7.48-35.31c3.49-11.65,7.83-23.21,13.54-34.39c2.89-5.57,5.98-11.1,9.63-16.44
							c1.75-2.71,3.74-5.32,5.78-7.96c1.08-1.31,2.07-2.61,3.28-3.92c1.24-1.38,2.14-2.45,4.13-4.24l4.51-4.06
							c6.55-5.9,16.65-5.37,22.54,1.19c5.9,6.55,5.37,16.65-1.19,22.54C1599.53,1546.03,1596.77,1547.31,1593.97,1547.83z"/>
					</g>
				</g>
			</g>
			<g>
				<g>
					<path class="st2" d="M2797.18,1144.57c0.33-1.91,0.76-4.43,1.18-5.74l1.24-3.84l2.55-7.06l5.26-13.49l10.81-26.51l22.16-52.55
						l-4.88,56.72l-2.1,28.27l-0.82,13.99l-0.22,6.74l0.02,3.09c0.02,1,0.3,0.82,0.34,1.24L2797.18,1144.57z"/>
				</g>
			</g>
			<g>
				<g>
					<path class="st2" d="M2533.58,2192.85l53.49-181.27l-18.6,188.08c-0.97,9.81-9.71,16.98-19.53,16.01
						c-9.81-0.97-16.98-9.71-16.01-19.53C2533.05,2195.04,2533.28,2193.88,2533.58,2192.85z"/>
				</g>
			</g>
			<g>
				<g>
					<path class="st2" d="M1150.5,3229.61c-2.25,0-4.53-0.64-6.55-1.98c-75.57-50.25-106.33-158.56-78.35-275.95
						c29.06-121.96,111.66-208.38,210.44-220.19c6.54-0.78,12.39,3.86,13.18,10.36c0.78,6.5-3.87,12.4-10.36,13.17
						c-107.9,12.89-169.89,116.95-190.19,202.15c-25.65,107.62,1.21,206.03,68.42,250.72c5.45,3.63,6.93,10.98,3.3,16.43
						C1158.1,3227.76,1154.34,3229.61,1150.5,3229.61z"/>
				</g>
			</g>
			<g>
				<g>
					<path class="st2" d="M1696,3298.56c-3.36,0-6.69-1.42-9.03-4.17c-4.24-4.99-3.63-12.46,1.35-16.71
						c71.83-61.06,106.55-168.4,88.47-273.47c-14.23-82.72-57.98-145.53-117.03-168.01c-6.12-2.33-9.18-9.17-6.86-15.29
						c2.33-6.12,9.17-9.19,15.29-6.86c66.95,25.49,116.28,95.08,131.95,186.14c19.47,113.16-18.4,229.16-96.48,295.55
						C1701.44,3297.63,1698.72,3298.56,1696,3298.56z"/>
				</g>
			</g>
			<g class="st3">
				<g>
					<g>
						<path class="st2" d="M1594.56,3297.13c5.77,17.65,10.13,35.58,13.83,53.65c3.84,18.06,6.72,36.29,8.98,54.64
							c2.25,18.35,3.72,36.85,4.2,55.48c0.6,18.62-0.11,37.45-3.16,56.32c-1.69,9.43-3.68,18.86-6.9,28.24
							c-1.7,4.68-3.46,9.33-5.83,13.93c-2.23,4.55-5.2,9.26-8.37,12.91c-12.28,15.73-28.22,27.21-45,35.83
							c-33.76,16.97-72.44,23.22-110.63,16.72c-18.94-3.48-38.01-10.16-54.41-21.49c-15.63-10.34-30.34-21.52-44.86-33.82
							c-14.5-12.24-27.82-26.2-40.12-41.09c-5.72-7.79-11.86-15.33-16.64-23.8c-2.54-4.13-5.03-8.3-7.42-12.51l-6.35-13.07
							c-16.31-35.2-24.17-73.43-25.66-110.98c-1.46-37.64,2.5-74.85,10.62-110.88c0.18-0.8,0.98-1.31,1.78-1.13
							c0.67,0.15,1.13,0.73,1.16,1.38l0,0.04c1.95,36.81,3.72,72.96,9.63,108.14c1.75,8.72,3.22,17.48,5.15,26.08
							c2.28,8.51,4.21,17.09,6.72,25.46l4.24,12.37c1.42,4.11,2.53,8.33,4.4,12.25c3.61,7.86,6.23,16.16,10.51,23.64l5.75,11.54
							l6.58,11.07c4.06,7.59,9.46,14.32,14.1,21.58c10.4,13.75,21.7,26.97,34.4,39.21c12.67,12.15,26.45,23.96,40.16,35.41
							c12.73,10.88,27.77,19.42,44.2,24.86c32.7,11.1,71.51,8.46,102.12-9.38c15.25-8.79,28.01-21.65,35.93-36.44
							c2.24-3.72,3.58-7.15,4.76-11.07c1.23-3.82,2.03-7.96,2.78-12.08c1.49-8.3,2.11-17.03,2.65-25.72
							c1.84-35,1.56-71.11,0.5-107.28l-1.63-54.53c-0.58-18.24-1.08-36.55-1.09-55.01c-0.01-0.83,0.65-1.51,1.48-1.52
							C1593.78,3296.09,1594.36,3296.54,1594.56,3297.13z"/>
					</g>
				</g>
			</g>
			<g class="st3">
				<g>
					<g>
						<path class="st2" d="M1344.06,3272.94c-3.03,18.48-4.76,38.39-5.45,57.73c-0.67,19.47-0.17,38.98,1.9,58.24
							c2.11,19.24,5.79,38.28,12.15,56.26c3.21,8.95,6.93,17.74,11.72,25.84c2.19,4.21,5.02,7.92,7.59,11.86
							c2.98,3.57,5.7,7.44,9.08,10.64c6.35,6.85,13.85,12.53,21.99,17.12l6.21,3.34l6.74,2.94c4.52,1.9,8.96,4.08,13.55,5.75
							c18.21,7.11,37.36,12.27,56.63,12.08l7.14-0.67l3.59-0.33c1.17-0.21,2.31-0.56,3.47-0.83l6.96-1.73l6.59-2.81
							c8.53-4.2,16.56-10.02,22.71-17.68c6.38-7.43,11.7-15.89,16.07-24.82c4.59-8.84,8.17-18.2,11.76-27.53
							c-3.01,9.53-6.01,19.11-10.08,28.31c-3.85,9.28-8.71,18.23-14.87,26.37c-5.91,8.35-14.05,15.15-23.06,20.29l-7.02,3.5
							l-7.46,2.38c-1.25,0.37-2.49,0.83-3.76,1.13l-3.85,0.61l-7.74,1.2c-20.83,1.5-41.37-2.8-60.75-8.99
							c-4.91-1.45-9.59-3.4-14.41-5.09l-7.18-2.63l-7.23-3.31c-9.56-4.63-18.59-10.65-26.33-18c-4.11-3.47-7.46-7.6-11.11-11.51
							c-3.19-4.23-6.66-8.32-9.4-12.84c-5.95-8.79-10.66-18.25-14.79-27.88c-8.19-19.32-13.38-39.55-16.9-59.89
							c-3.47-20.36-5.26-40.89-5.82-61.41c-0.5-20.65-0.07-40.77,2.06-61.95c0.82-8.15,8.09-14.09,16.23-13.27
							c8.15,0.82,14.09,8.09,13.27,16.23c-0.03,0.29-0.07,0.58-0.11,0.87L1344.06,3272.94z"/>
					</g>
				</g>
			</g>
			<g class="st3">
				<g>
					<g>
						<path class="st2" d="M1412.28,3290.71c-3.74,26.36-5.12,54.7-1.54,81.03c2.01,13.03,5.21,26.1,11.7,36.17
							c6.34,10.21,16.12,16.08,28.59,16.03c12.77,0.34,25.21-3.73,34.8-12.44c9.67-8.62,16.44-20.87,21.09-33.81
							c9.11-26.21,11.47-55,10.64-83.28c3.24,28.16,3.56,57.13-3.57,85.47c-3.74,14.02-9.72,28.15-20.39,39.56
							c-10.5,11.55-26.43,18.45-42.01,19.3c-7.92,0.61-16.76-0.37-24.64-4.05c-7.94-3.6-14.55-9.5-19.57-16.01
							c-10.09-13.2-14.81-28.17-18.46-42.77c-3.37-14.7-5.17-29.47-6.05-44.19c-0.86-14.83-0.96-29.17-0.01-44.47
							c0.51-8.18,7.55-14.39,15.72-13.88c8.18,0.51,14.39,7.55,13.88,15.72c-0.02,0.38-0.06,0.76-0.11,1.13L1412.28,3290.71z"/>
					</g>
				</g>
			</g>
			<g class="st3">
				<g>
					<g>
						<path class="st2" d="M1330.92,2782.69c-0.27,0-0.54-0.01-0.82-0.03c-6.53-0.45-11.46-6.09-11.02-12.62
							c0.17-2.49,4.33-61.32,22.41-98.53c2.86-5.89,9.94-8.34,15.84-5.48c5.89,2.86,8.34,9.95,5.48,15.84
							c-16.04,33.02-20.04,89.21-20.08,89.77C1342.3,2777.9,1337.09,2782.69,1330.92,2782.69z"/>
					</g>
				</g>
			</g>
			<g class="st3">
				<g>
					<g>
						<path class="st2" d="M1423.23,2817.42c-5.92,0-11.04-4.43-11.75-10.46c-7.18-60.49,10.8-108.01,11.57-110
							c2.36-6.1,9.22-9.14,15.32-6.79c6.1,2.35,9.14,9.21,6.8,15.31c-0.26,0.69-16.59,44.45-10.16,98.69
							c0.77,6.5-3.87,12.39-10.37,13.16C1424.16,2817.39,1423.69,2817.42,1423.23,2817.42z"/>
					</g>
				</g>
			</g>
			<g class="st3">
				<g>
					<g>
						<path class="st2" d="M1546.7,2832.24c-0.75,0-1.51-0.07-2.27-0.22c-6.43-1.25-10.62-7.47-9.37-13.89
							c6.94-35.67,24.21-95.15,24.95-97.66c1.83-6.29,8.39-9.92,14.69-8.07c6.28,1.83,9.89,8.4,8.07,14.69
							c-0.18,0.61-17.71,60.96-24.44,95.57C1557.21,2828.31,1552.26,2832.24,1546.7,2832.24z"/>
					</g>
				</g>
			</g>
			<g class="st3">
				<g>
					<g>
						<path class="st2" d="M1623.7,2832.24c-2.26,0-4.54-0.64-6.56-1.99c-5.45-3.63-6.92-10.99-3.29-16.43
							c5.96-8.93,17.02-50.96,22.98-77.94c1.41-6.39,7.73-10.44,14.12-9.02c6.39,1.41,10.43,7.74,9.02,14.12
							c-2.55,11.58-15.83,70.13-26.4,85.99C1631.29,2830.39,1627.53,2832.24,1623.7,2832.24z"/>
					</g>
				</g>
			</g>
			<g class="st3">
				<g>
					<path class="st2" d="M1245.93,2663.26c0,0-4.92,223.29,450.33,147.25l-2.08-65.73"/>
				</g>
			</g>
			<g class="st3">
				<g>
					<path class="st2" d="M1695.25,3595.77c-6.4,16.53-13.27,46.69-22.99,78.22c-19.85,8.18-42.37,14.46-67.9,18.13
						c-12.56,1.84-25.83,3.02-39.88,3.49c-22.93,0.83-47.94-0.3-75.13-3.79c106.89-18.9,144.34-90.13,158.56-194.47
						c17.78-130.36-39.46-125.91-39.46-125.91c-297.1,8.77-413.53-97.41-416.96-100.61c-0.06-0.06-0.06-0.06-0.06-0.06l0.06-0.53
						l4.62-34.07c0,0,198.5,27.61,261.01,46.4c62.51,18.78,219.95,6.46,219.95,6.46l18.19,15.29
						C1695.25,3304.31,1711.61,3553.64,1695.25,3595.77z"/>
				</g>
			</g>
			<g class="st12">
				<g>
					<path class="st0" d="M1730.21,3054.73c-10.32,54.97-137.8,77.16-284.74,49.57c-146.93-27.59-257.68-94.52-247.36-149.49
						c10.32-54.97,119.11,22.37,266.05,49.96C1611.1,3032.36,1740.54,2999.76,1730.21,3054.73z"/>
				</g>
			</g>
			<g class="st3">
				<g>
					<path class="st2" d="M2299.1,2883.96c26.37,65.06,26.31,134.86,1.36,208.99c-12.09,33.3-23.82,55.99-35.14,70.04
						c19.14-121-2.19-215.03-31.76-260.71c-38.99-60.32-28.2-111.51,42.9-311.02c56.29-157.91-11.73-204.42-42.48-216.93
						c14.22-94.69,16.83-161.29,16.83-161.29l154.06-30.63c4.68,218.05-35.14,406.65-105.12,575.17
						C2282.98,2797.99,2282.63,2843.44,2299.1,2883.96z"/>
				</g>
			</g>
		</g>
	</g>
</g>
</svg>
